<?xml version="1.0" encoding="utf-8"?>
<!-- Generator: Adobe Illustrator 24.1.0, SVG Export Plug-In . SVG Version: 6.00 Build 0)  -->
<svg version="1.1" id="Layer_1" xmlns="http://www.w3.org/2000/svg" xmlns:xlink="http://www.w3.org/1999/xlink" x="0px" y="0px"
	 width="50px" height="50px" viewBox="0 0 50 50" style="enable-background:new 0 0 50 50;" xml:space="preserve">
<style type="text/css">
	.st0{fill:#FFFFFF;}
</style>
<path id="path4" class="st0" d="M9.51,30.04c0-3.47,0.94-6.29,2.44-8.44c0,4.27,1.03,5.77,3.28,5.77c1.5,0,3.05-1.13,3.05-3.05
	c0-1.74-1.17-4.88-1.17-8.26s1.13-6.99,5.72-9.66c-1.03,2.72-1.45,5.02-1.45,6.9c0,4.97,3,7.22,5.68,7.22
	c2.16,0,4.41-1.41,4.41-5.49c1.45,1.59,2.11,3.42,2.11,5.25c0,2.91-1.59,5.49-1.59,7.83c0,1.92,1.55,3.05,3.05,3.05
	c2.67,0,3.47-2.39,3.47-6.33c0.8,1.36,1.5,4.03,1.5,6.33c0,6.85-6.47,11.82-13.7,11.82c6.1-2.3,7.22-5.35,7.22-8.77
	c-1.5,2.67-3.05,3.05-3.8,3.05c-4.6,0,0.38-8.77-7.65-14.87c1.31,2.81,1.83,5.25,1.83,7.22c0,4.22-2.3,6.52-4.5,6.52
	c-1.88,0-3.75-1.5-4.5-4.69c0,4.46,1.31,8.68,7.18,11.54C12.93,41.49,9.51,35.76,9.51,30.04z"/>
</svg>
