<?xml version="1.0" encoding="utf-8"?>
<!-- Generator: Adobe Illustrator 24.3.0, SVG Export Plug-In . SVG Version: 6.00 Build 0)  -->
<svg version="1.1"
	 id="svg8" xmlns:cc="http://creativecommons.org/ns#" xmlns:dc="http://purl.org/dc/elements/1.1/" xmlns:inkscape="http://www.inkscape.org/namespaces/inkscape" xmlns:rdf="http://www.w3.org/1999/02/22-rdf-syntax-ns#" xmlns:sodipodi="http://sodipodi.sourceforge.net/DTD/sodipodi-0.dtd" xmlns:svg="http://www.w3.org/2000/svg"
	 xmlns="http://www.w3.org/2000/svg" xmlns:xlink="http://www.w3.org/1999/xlink" x="0px" y="0px" width="1280px" height="640px"
	 viewBox="0 0 1280 640" style="enable-background:new 0 0 1280 640;" xml:space="preserve">
<style type="text/css">
	.st0{fill:#ED6D2E;}
	.st1{fill:#F69E47;}
	.st2{fill:#FFFFFF;fill-opacity:0.5056;}
	.st3{fill:#222222;}
	.st4{fill:#FFFFFF;}
	.st5{font-family:'AmaticSC-Regular';}
	.st6{font-size:71.0993px;}
</style>
<sodipodi:namedview  bordercolor="#666666" borderopacity="1.0" id="base" inkscape:current-layer="layer1" inkscape:cx="1043.3943" inkscape:cy="529.23869" inkscape:document-units="mm" inkscape:pageopacity="0.0" inkscape:pageshadow="2" inkscape:window-height="713" inkscape:window-maximized="1" inkscape:window-width="1366" inkscape:window-x="0" inkscape:window-y="27" inkscape:zoom="0.24748737" pagecolor="#ffffff" showgrid="false" showguides="false" units="px">
	<inkscape:grid  id="grid815" type="xygrid"></inkscape:grid>
</sodipodi:namedview>
<rect id="rect817" x="-0.9" y="0.1" class="st0" width="1281.7" height="639.9"/>
<rect id="rect823" x="20" y="21.4" class="st1" width="1240" height="597.2"/>
<path id="path4" inkscape:connector-curvature="0" class="st2" d="M540.6,290.9c0-22.6,6.1-41,15.9-55c0,27.8,6.7,37.6,21.4,37.6
	c9.8,0,19.9-7.4,19.9-19.9c0-11.3-7.6-31.8-7.6-53.9s7.4-45.6,37.3-63c-6.7,17.7-9.5,32.7-9.5,45c0,32.4,19.6,47.1,37,47.1
	c14.1,0,28.8-9.2,28.8-35.8c9.5,10.4,13.8,22.3,13.8,34.2c0,19-10.4,35.8-10.4,51.1c0,12.5,10.1,19.9,19.9,19.9
	c17.4,0,22.6-15.6,22.6-41.3c5.2,8.9,9.8,26.3,9.8,41.3c0,44.7-42.2,77.1-89.3,77.1c39.8-15,47.1-34.9,47.1-57.2
	c-9.8,17.4-19.9,19.9-24.8,19.9c-30,0,2.5-57.2-49.9-97c8.5,18.3,11.9,34.2,11.9,47.1c0,27.5-15,42.5-29.3,42.5
	c-12.3,0-24.5-9.8-29.3-30.6c0,29.1,8.5,56.6,46.8,75.2C562.9,365.6,540.6,328.2,540.6,290.9L540.6,290.9z"/>
<rect id="rect831" x="20" y="490.6" class="st3" width="1240" height="128"/>
<text transform="matrix(1 0 0 1 487.042 581.29)" class="st4 st5 st6">Saucey Messages</text>
</svg>
