<?xml version="1.0" encoding="UTF-8" standalone="no"?>
<!-- Created with Inkscape (http://www.inkscape.org/) -->

<svg
   xmlns:dc="http://purl.org/dc/elements/1.1/"
   xmlns:cc="http://creativecommons.org/ns#"
   xmlns:rdf="http://www.w3.org/1999/02/22-rdf-syntax-ns#"
   xmlns:svg="http://www.w3.org/2000/svg"
   xmlns="http://www.w3.org/2000/svg"
   xmlns:sodipodi="http://sodipodi.sourceforge.net/DTD/sodipodi-0.dtd"
   xmlns:inkscape="http://www.inkscape.org/namespaces/inkscape"
   width="1200"
   height="1200"
   viewBox="0 0 317.49999 317.50001"
   version="1.1"
   id="svg8"
   inkscape:version="0.92.3 (2405546, 2018-03-11)"
   sodipodi:docname="og.svg">
  <defs
     id="defs2" />
  <sodipodi:namedview
     id="base"
     pagecolor="#ffffff"
     bordercolor="#666666"
     borderopacity="1.0"
     inkscape:pageopacity="0.0"
     inkscape:pageshadow="2"
     inkscape:zoom="0.35"
     inkscape:cx="1043.3943"
     inkscape:cy="529.23869"
     inkscape:document-units="mm"
     inkscape:current-layer="layer1"
     showgrid="false"
     units="px"
     showguides="false"
     inkscape:window-width="1366"
     inkscape:window-height="713"
     inkscape:window-x="0"
     inkscape:window-y="27"
     inkscape:window-maximized="1">
    <inkscape:grid
       type="xygrid"
       id="grid815" />
  </sodipodi:namedview>
  <metadata
     id="metadata5">
    <rdf:RDF>
      <cc:Work
         rdf:about="">
        <dc:format>image/svg+xml</dc:format>
        <dc:type
           rdf:resource="http://purl.org/dc/dcmitype/StillImage" />
        <dc:title />
      </cc:Work>
    </rdf:RDF>
  </metadata>
  <g
     inkscape:label="Layer 1"
     inkscape:groupmode="layer"
     id="layer1"
     transform="translate(0,20.500017)">
    <rect
       style="opacity:1;fill:#ed6d2e;fill-opacity:1;stroke-width:29.60687447;stroke-linecap:round;stroke-linejoin:round;stroke-miterlimit:4;stroke-dasharray:none"
       id="rect817"
       width="317.5"
       height="317.5"
       x="0"
       y="-20.500017" />
    <rect
       style="opacity:1;fill:#f69e47;fill-opacity:1;stroke-width:29.60687447;stroke-linecap:round;stroke-linejoin:round;stroke-miterlimit:4;stroke-dasharray:none"
       id="rect823"
       width="296.33334"
       height="296.33334"
       x="10.583333"
       y="-9.9166842" />
    <path
       inkscape:connector-curvature="0"
       id="path4"
       class="st0"
       d="m 109.41306,155.55831 c 0,-11.2261 3.04112,-20.34945 7.89399,-27.30508 0,13.81432 3.33226,18.66718 10.61144,18.66718 4.85286,0 9.86738,-3.6558 9.86738,-9.86738 0,-5.62932 -3.78517,-15.78785 -3.78517,-26.72282 0,-10.934976 3.6558,-22.614126 18.50531,-31.252148 -3.33225,8.799802 -4.69097,16.240752 -4.69097,22.322988 0,16.07897 9.70561,23.35815 18.37592,23.35815 6.98805,0 14.26723,-4.56162 14.26723,-17.76124 4.69109,5.144 6.82626,11.06433 6.82626,16.98479 0,9.41449 -5.14387,17.76125 -5.14387,25.33169 0,6.21159 5.01452,9.86739 9.86739,9.86739 8.6379,0 11.2261,-7.73222 11.2261,-20.47894 2.58821,4.39997 4.85287,13.03799 4.85287,20.47894 0,22.16109 -20.93184,38.24007 -44.32242,38.24007 19.73478,-7.44096 23.3583,-17.30834 23.3583,-28.37268 -4.85287,8.6379 -9.86739,9.86739 -12.29383,9.86739 -14.8819,0 1.22935,-28.37282 -24.74929,-48.10758 4.23807,9.09094 5.92034,16.9848 5.92034,23.35816 0,13.65256 -7.44096,21.09362 -14.55838,21.09362 -6.08222,0 -12.13205,-4.85287 -14.55848,-15.17316 0,14.42899 4.23819,28.08154 23.2288,37.33425 -29.63445,-4.82047 -40.69892,-23.35816 -40.69892,-41.86359 z"
       style="fill:#ffffff;fill-opacity:0.50561799;stroke-width:3.23520565" />
    <rect
       style="opacity:1;fill:#222222;fill-opacity:1;stroke-width:29.60687447;stroke-linecap:round;stroke-linejoin:round;stroke-miterlimit:4;stroke-dasharray:none"
       id="rect831"
       width="296.33334"
       height="63.5"
       x="10.583333"
       y="222.91664" />
    <text
       xml:space="preserve"
       style="font-style:normal;font-weight:normal;font-size:10.58333302px;line-height:1.25;font-family:sans-serif;letter-spacing:0px;word-spacing:0px;fill:#000000;fill-opacity:1;stroke:none;stroke-width:0.26458332"
       x="82.856201"
       y="267.89584"
       id="text859"><tspan
         sodipodi:role="line"
         id="tspan857"
         x="82.856201"
         y="267.89584"
         style="font-style:normal;font-variant:normal;font-weight:normal;font-stretch:normal;font-size:35.27777863px;font-family:'Amatic SC';-inkscape-font-specification:'Amatic SC, Normal';font-variant-ligatures:normal;font-variant-caps:normal;font-variant-numeric:normal;font-feature-settings:normal;text-align:start;writing-mode:lr-tb;text-anchor:start;fill:#ffffff;fill-opacity:1;stroke-width:0.26458332">Saucey Messages</tspan></text>
  </g>
</svg>
